<svg width="40" height="48" viewBox="0 0 40 48" fill="none" xmlns="http://www.w3.org/2000/svg">
<path fill-rule="evenodd" clip-rule="evenodd" d="M20 48L28.91 41.763C35.8605 36.8976 40 28.9471 40 20.463V6C36.6863 6 34 3.31371 34 0H20V9C27.1682 9 33 14.8318 33 22C33 29.1682 27.1682 35 20 35V48ZM20 17.4479H22.5385L24.8747 14.2326L23.8406 11.0551C22.638 10.6318 21.3455 10.4007 20 10.4007V17.4479ZM23.3346 33.1143L20.7295 31.2135V27.406L24.8816 24.3826L28.5348 25.5721L29.5281 28.6228C28.0448 30.7477 25.8728 32.3547 23.3346 33.1143ZM29.3016 15.0775C30.7442 17.0112 31.5993 19.4075 31.5993 22C31.5993 22.1063 31.5977 22.2122 31.5948 22.3178L28.954 24.2378L25.22 23.0247L23.6726 18.2699L25.9993 15.0673L29.3016 15.0775Z" fill="#507093"/>
<path fill-rule="evenodd" clip-rule="evenodd" d="M20 48L11.09 41.763C4.13948 36.8976 0 28.9471 0 20.463V6C3.31371 6 6 3.31371 6 0H20V9C12.8318 9 7 14.8318 7 22C7 29.1682 12.8318 35 20 35V48ZM20 17.4479H17.4615L15.1253 14.2326L16.1594 11.0551C17.362 10.6318 18.6545 10.4007 20 10.4007V17.4479ZM16.6654 33.1143L19.2705 31.2135V27.406L15.1184 24.3826L11.4652 25.5721L10.4719 28.6228C11.9552 30.7477 14.1272 32.3547 16.6654 33.1143ZM10.6984 15.0775C9.25578 17.0112 8.40067 19.4075 8.40067 22C8.40067 22.1063 8.40234 22.2122 8.40523 22.3178L11.046 24.2378L14.78 23.0247L16.3274 18.2699L14.0007 15.0673L10.6984 15.0775Z" fill="#738DA9"/>
</svg>
